<svg width="116" height="69" viewBox="0 0 116 69" fill="none" xmlns="http://www.w3.org/2000/svg">
<path d="M29.952 11.616C29.8773 11.5413 29.7387 11.44 29.536 11.312C29.344 11.184 29.104 11.0613 28.816 10.944C28.5387 10.8267 28.2347 10.7253 27.904 10.64C27.5733 10.544 27.2373 10.496 26.896 10.496C26.2987 10.496 25.8453 10.608 25.536 10.832C25.2373 11.056 25.088 11.3707 25.088 11.776C25.088 12.0853 25.184 12.3307 25.376 12.512C25.568 12.6933 25.856 12.848 26.24 12.976C26.624 13.104 27.104 13.2427 27.68 13.392C28.4267 13.5733 29.072 13.7973 29.616 14.064C30.1707 14.32 30.592 14.6613 30.88 15.088C31.1787 15.504 31.328 16.0587 31.328 16.752C31.328 17.36 31.216 17.8827 30.992 18.32C30.768 18.7467 30.4587 19.0933 30.064 19.36C29.6693 19.6267 29.2213 19.824 28.72 19.952C28.2187 20.0693 27.6853 20.128 27.12 20.128C26.5547 20.128 25.9893 20.0693 25.424 19.952C24.8587 19.8347 24.3147 19.6693 23.792 19.456C23.2693 19.232 22.7893 18.9653 22.352 18.656L23.328 16.752C23.424 16.848 23.5947 16.976 23.84 17.136C24.0853 17.2853 24.384 17.44 24.736 17.6C25.088 17.7493 25.472 17.8773 25.888 17.984C26.304 18.0907 26.7253 18.144 27.152 18.144C27.7493 18.144 28.2027 18.0427 28.512 17.84C28.8213 17.6373 28.976 17.3493 28.976 16.976C28.976 16.6347 28.8533 16.368 28.608 16.176C28.3627 15.984 28.0213 15.8187 27.584 15.68C27.1467 15.5307 26.6293 15.3707 26.032 15.2C25.3173 14.9973 24.72 14.7733 24.24 14.528C23.76 14.272 23.4027 13.952 23.168 13.568C22.9333 13.184 22.816 12.704 22.816 12.128C22.816 11.3493 22.9973 10.6987 23.36 10.176C23.7333 9.64267 24.2347 9.24267 24.864 8.976C25.4933 8.69867 26.192 8.56 26.96 8.56C27.4933 8.56 27.9947 8.61867 28.464 8.736C28.944 8.85333 29.392 9.008 29.808 9.2C30.224 9.392 30.5973 9.6 30.928 9.824L29.952 11.616ZM37.7656 20.16C37.115 20.16 36.539 20.016 36.0376 19.728C35.547 19.4293 35.163 19.0293 34.8856 18.528V23.408H32.7416V11.616H34.6136V13.056C34.9336 12.5653 35.339 12.1813 35.8296 11.904C36.3203 11.616 36.8803 11.472 37.5096 11.472C38.075 11.472 38.5923 11.584 39.0616 11.808C39.5416 12.032 39.9576 12.3467 40.3096 12.752C40.6616 13.1467 40.9336 13.6053 41.1256 14.128C41.3283 14.64 41.4296 15.1947 41.4296 15.792C41.4296 16.6027 41.2696 17.3387 40.9496 18C40.6403 18.6613 40.2083 19.1893 39.6536 19.584C39.1096 19.968 38.4803 20.16 37.7656 20.16ZM37.0456 18.336C37.3763 18.336 37.675 18.2667 37.9416 18.128C38.2083 17.9893 38.4376 17.8027 38.6296 17.568C38.8323 17.3227 38.9816 17.0507 39.0776 16.752C39.1843 16.4427 39.2376 16.1227 39.2376 15.792C39.2376 15.44 39.179 15.1147 39.0616 14.816C38.955 14.5173 38.795 14.256 38.5816 14.032C38.3683 13.7973 38.1176 13.616 37.8296 13.488C37.5523 13.36 37.2483 13.296 36.9176 13.296C36.715 13.296 36.507 13.3333 36.2936 13.408C36.091 13.472 35.8936 13.568 35.7016 13.696C35.5096 13.824 35.339 13.9733 35.1896 14.144C35.051 14.3147 34.9496 14.5013 34.8856 14.704V16.672C35.0136 16.9813 35.1843 17.264 35.3976 17.52C35.6216 17.776 35.8776 17.9787 36.1656 18.128C36.4536 18.2667 36.747 18.336 37.0456 18.336ZM46.7543 20.16C46.0716 20.16 45.4583 20.048 44.9143 19.824C44.3703 19.5893 43.9063 19.2693 43.5223 18.864C43.1489 18.4587 42.8609 17.9947 42.6583 17.472C42.4556 16.9493 42.3543 16.4 42.3543 15.824C42.3543 15.2373 42.4556 14.6827 42.6583 14.16C42.8609 13.6373 43.1489 13.1733 43.5223 12.768C43.9063 12.3627 44.3703 12.048 44.9143 11.824C45.4583 11.5893 46.0716 11.472 46.7543 11.472C47.4369 11.472 48.0449 11.5893 48.5783 11.824C49.1223 12.048 49.5863 12.3627 49.9703 12.768C50.3543 13.1733 50.6423 13.6373 50.8343 14.16C51.0369 14.6827 51.1383 15.2373 51.1383 15.824C51.1383 16.4 51.0369 16.9493 50.8343 17.472C50.6423 17.9947 50.3543 18.4587 49.9703 18.864C49.5969 19.2693 49.1383 19.5893 48.5943 19.824C48.0503 20.048 47.4369 20.16 46.7543 20.16ZM44.5623 15.824C44.5623 16.3147 44.6583 16.752 44.8503 17.136C45.0423 17.5093 45.3036 17.8027 45.6343 18.016C45.9649 18.2293 46.3383 18.336 46.7543 18.336C47.1596 18.336 47.5276 18.2293 47.8583 18.016C48.1889 17.792 48.4503 17.4933 48.6423 17.12C48.8449 16.736 48.9463 16.2987 48.9463 15.808C48.9463 15.328 48.8449 14.896 48.6423 14.512C48.4503 14.128 48.1889 13.8293 47.8583 13.616C47.5276 13.4027 47.1596 13.296 46.7543 13.296C46.3383 13.296 45.9649 13.408 45.6343 13.632C45.3036 13.8453 45.0423 14.144 44.8503 14.528C44.6583 14.9013 44.5623 15.3333 44.5623 15.824ZM57.5774 13.472C56.9267 13.472 56.3454 13.6 55.8334 13.856C55.3214 14.1013 54.9534 14.4587 54.7294 14.928V20H52.5854V11.616H54.5534V13.408C54.852 12.832 55.2307 12.3787 55.6894 12.048C56.148 11.7173 56.6334 11.536 57.1454 11.504C57.2627 11.504 57.3534 11.504 57.4174 11.504C57.4814 11.504 57.5347 11.5093 57.5774 11.52V13.472ZM63.7969 19.568C63.6155 19.6427 63.3969 19.728 63.1409 19.824C62.8849 19.92 62.6075 19.9947 62.3089 20.048C62.0209 20.112 61.7275 20.144 61.4289 20.144C61.0342 20.144 60.6715 20.0747 60.3409 19.936C60.0102 19.7973 59.7435 19.5787 59.5409 19.28C59.3489 18.9707 59.2529 18.5707 59.2529 18.08V13.264H58.1489V11.616H59.2529V8.896H61.3969V11.616H63.1569V13.264H61.3969V17.36C61.4075 17.648 61.4875 17.856 61.6369 17.984C61.7862 18.112 61.9729 18.176 62.1969 18.176C62.4209 18.176 62.6395 18.1387 62.8529 18.064C63.0662 17.9893 63.2369 17.9253 63.3649 17.872L63.7969 19.568ZM68.2773 14.24C68.2773 13.5467 68.3999 12.8693 68.6453 12.208C68.9013 11.536 69.2693 10.928 69.7493 10.384C70.2293 9.82933 70.8159 9.392 71.5093 9.072C72.2026 8.74133 72.9919 8.576 73.8773 8.576C74.9226 8.576 75.8239 8.80533 76.5813 9.264C77.3493 9.72267 77.9199 10.32 78.2933 11.056L76.5972 12.224C76.4053 11.7973 76.1546 11.4613 75.8453 11.216C75.5359 10.96 75.2053 10.784 74.8533 10.688C74.5013 10.5813 74.1546 10.528 73.8133 10.528C73.2586 10.528 72.7733 10.64 72.3573 10.864C71.9519 11.088 71.6106 11.3813 71.3333 11.744C71.0559 12.1067 70.8479 12.512 70.7093 12.96C70.5813 13.408 70.5173 13.856 70.5173 14.304C70.5173 14.8053 70.5973 15.2907 70.7573 15.76C70.9173 16.2187 71.1413 16.6293 71.4293 16.992C71.7279 17.344 72.0799 17.6267 72.4852 17.84C72.9013 18.0427 73.3546 18.144 73.8453 18.144C74.1973 18.144 74.5546 18.0853 74.9173 17.968C75.2799 17.8507 75.6159 17.664 75.9253 17.408C76.2346 17.152 76.4746 16.8213 76.6453 16.416L78.4533 17.456C78.2293 18.0213 77.8613 18.5013 77.3493 18.896C76.8479 19.2907 76.2826 19.5893 75.6533 19.792C75.0239 19.9947 74.3999 20.096 73.7813 20.096C72.9706 20.096 72.2293 19.9307 71.5573 19.6C70.8853 19.2587 70.3039 18.8107 69.8133 18.256C69.3333 17.6907 68.9546 17.0613 68.6773 16.368C68.4106 15.664 68.2773 14.9547 68.2773 14.24ZM79.71 8.32H81.854V17.312C81.854 17.696 81.918 17.9573 82.046 18.096C82.174 18.224 82.35 18.288 82.574 18.288C82.7447 18.288 82.9207 18.2667 83.102 18.224C83.2833 18.1813 83.4433 18.128 83.582 18.064L83.87 19.696C83.582 19.8347 83.246 19.9413 82.862 20.016C82.478 20.0907 82.1313 20.128 81.822 20.128C81.15 20.128 80.6273 19.952 80.254 19.6C79.8913 19.2373 79.71 18.7253 79.71 18.064V8.32ZM84.7241 16.864V11.616H86.8681V16.4C86.8681 17.04 86.9855 17.5253 87.2201 17.856C87.4548 18.176 87.8015 18.336 88.2601 18.336C88.5375 18.336 88.8095 18.2827 89.0761 18.176C89.3535 18.0587 89.6041 17.888 89.8281 17.664C90.0628 17.44 90.2601 17.1573 90.4201 16.816V11.616H92.5641V17.6C92.5641 17.824 92.6015 17.984 92.6761 18.08C92.7615 18.176 92.8948 18.2347 93.0761 18.256V20C92.8628 20.032 92.6815 20.0533 92.5321 20.064C92.3935 20.0853 92.2655 20.096 92.1481 20.096C91.7641 20.096 91.4495 20.0107 91.2041 19.84C90.9695 19.6587 90.8308 19.4133 90.7881 19.104L90.7401 18.432C90.3668 18.9973 89.8868 19.4293 89.3001 19.728C88.7135 20.016 88.0681 20.16 87.3641 20.16C86.5001 20.16 85.8441 19.8827 85.3961 19.328C84.9481 18.7627 84.7241 17.9413 84.7241 16.864ZM99.4628 20.16C98.8228 20.16 98.2521 20.016 97.7508 19.728C97.2494 19.44 96.8548 19.0453 96.5668 18.544V20H94.6948V8.32H96.8388V13.088C97.1374 12.5867 97.5268 12.192 98.0068 11.904C98.4974 11.616 99.0681 11.472 99.7188 11.472C100.263 11.472 100.759 11.5893 101.207 11.824C101.655 12.048 102.039 12.3627 102.359 12.768C102.689 13.1733 102.94 13.6373 103.111 14.16C103.292 14.6827 103.383 15.2427 103.383 15.84C103.383 16.4373 103.281 16.9973 103.079 17.52C102.887 18.0427 102.615 18.5067 102.263 18.912C101.911 19.3067 101.495 19.616 101.015 19.84C100.545 20.0533 100.028 20.16 99.4628 20.16ZM98.8708 18.336C99.2121 18.336 99.5214 18.272 99.7988 18.144C100.087 18.0053 100.332 17.824 100.535 17.6C100.748 17.376 100.908 17.1147 101.015 16.816C101.132 16.5067 101.191 16.1867 101.191 15.856C101.191 15.3973 101.095 14.976 100.903 14.592C100.721 14.1973 100.465 13.8827 100.135 13.648C99.8148 13.4133 99.4361 13.296 98.9988 13.296C98.6894 13.296 98.3908 13.3707 98.1028 13.52C97.8254 13.6587 97.5748 13.8507 97.3508 14.096C97.1374 14.3413 96.9668 14.6187 96.8388 14.928V16.928C96.9028 17.1413 97.0041 17.3333 97.1428 17.504C97.2921 17.6747 97.4628 17.824 97.6548 17.952C97.8468 18.0693 98.0441 18.1653 98.2468 18.24C98.4601 18.304 98.6681 18.336 98.8708 18.336ZM22.496 33.24C22.496 32.5467 22.6187 31.8693 22.864 31.208C23.12 30.536 23.488 29.928 23.968 29.384C24.448 28.8293 25.0347 28.392 25.728 28.072C26.4213 27.7413 27.2107 27.576 28.096 27.576C29.1413 27.576 30.0427 27.8053 30.8 28.264C31.568 28.7227 32.1387 29.32 32.512 30.056L30.816 31.224C30.624 30.7973 30.3733 30.4613 30.064 30.216C29.7547 29.96 29.424 29.784 29.072 29.688C28.72 29.5813 28.3733 29.528 28.032 29.528C27.4773 29.528 26.992 29.64 26.576 29.864C26.1707 30.088 25.8293 30.3813 25.552 30.744C25.2747 31.1067 25.0667 31.512 24.928 31.96C24.8 32.408 24.736 32.856 24.736 33.304C24.736 33.8053 24.816 34.2907 24.976 34.76C25.136 35.2187 25.36 35.6293 25.648 35.992C25.9467 36.344 26.2987 36.6267 26.704 36.84C27.12 37.0427 27.5733 37.144 28.064 37.144C28.416 37.144 28.7733 37.0853 29.136 36.968C29.4987 36.8507 29.8347 36.664 30.144 36.408C30.4533 36.152 30.6933 35.8213 30.864 35.416L32.672 36.456C32.448 37.0213 32.08 37.5013 31.568 37.896C31.0667 38.2907 30.5013 38.5893 29.872 38.792C29.2427 38.9947 28.6187 39.096 28 39.096C27.1893 39.096 26.448 38.9307 25.776 38.6C25.104 38.2587 24.5227 37.8107 24.032 37.256C23.552 36.6907 23.1733 36.0613 22.896 35.368C22.6293 34.664 22.496 33.9547 22.496 33.24ZM37.7855 39.16C37.1028 39.16 36.4895 39.048 35.9455 38.824C35.4015 38.5893 34.9375 38.2693 34.5535 37.864C34.1802 37.4587 33.8922 36.9947 33.6895 36.472C33.4868 35.9493 33.3855 35.4 33.3855 34.824C33.3855 34.2373 33.4868 33.6827 33.6895 33.16C33.8922 32.6373 34.1802 32.1733 34.5535 31.768C34.9375 31.3627 35.4015 31.048 35.9455 30.824C36.4895 30.5893 37.1028 30.472 37.7855 30.472C38.4682 30.472 39.0762 30.5893 39.6095 30.824C40.1535 31.048 40.6175 31.3627 41.0015 31.768C41.3855 32.1733 41.6735 32.6373 41.8655 33.16C42.0682 33.6827 42.1695 34.2373 42.1695 34.824C42.1695 35.4 42.0682 35.9493 41.8655 36.472C41.6735 36.9947 41.3855 37.4587 41.0015 37.864C40.6282 38.2693 40.1695 38.5893 39.6255 38.824C39.0815 39.048 38.4682 39.16 37.7855 39.16ZM35.5935 34.824C35.5935 35.3147 35.6895 35.752 35.8815 36.136C36.0735 36.5093 36.3348 36.8027 36.6655 37.016C36.9962 37.2293 37.3695 37.336 37.7855 37.336C38.1908 37.336 38.5588 37.2293 38.8895 37.016C39.2202 36.792 39.4815 36.4933 39.6735 36.12C39.8762 35.736 39.9775 35.2987 39.9775 34.808C39.9775 34.328 39.8762 33.896 39.6735 33.512C39.4815 33.128 39.2202 32.8293 38.8895 32.616C38.5588 32.4027 38.1908 32.296 37.7855 32.296C37.3695 32.296 36.9962 32.408 36.6655 32.632C36.3348 32.8453 36.0735 33.144 35.8815 33.528C35.6895 33.9013 35.5935 34.3333 35.5935 34.824ZM48.6086 32.472C47.958 32.472 47.3766 32.6 46.8646 32.856C46.3526 33.1013 45.9846 33.4587 45.7606 33.928V39H43.6166V30.616H45.5846V32.408C45.8833 31.832 46.262 31.3787 46.7206 31.048C47.1793 30.7173 47.6646 30.536 48.1766 30.504C48.294 30.504 48.3846 30.504 48.4486 30.504C48.5126 30.504 48.566 30.5093 48.6086 30.52V32.472ZM49.8041 39V30.616H51.9481V39H49.8041ZM49.8041 29.448V27.32H51.9481V29.448H49.8041ZM61.6743 39H59.5303V34.296C59.5303 33.624 59.4129 33.1333 59.1783 32.824C58.9436 32.5147 58.6183 32.36 58.2023 32.36C57.9143 32.36 57.6209 32.4347 57.3223 32.584C57.0343 32.7333 56.7729 32.9413 56.5383 33.208C56.3036 33.464 56.1329 33.7627 56.0263 34.104V39H53.8823V30.616H55.8183V32.168C56.0316 31.8053 56.3036 31.5013 56.6343 31.256C56.9649 31 57.3436 30.808 57.7703 30.68C58.2076 30.5413 58.6663 30.472 59.1463 30.472C59.6689 30.472 60.0956 30.568 60.4263 30.76C60.7676 30.9413 61.0236 31.192 61.1943 31.512C61.3756 31.8213 61.4983 32.1733 61.5623 32.568C61.6369 32.9627 61.6743 33.3627 61.6743 33.768V39ZM68.5156 38.568C68.3343 38.6427 68.1156 38.728 67.8596 38.824C67.6036 38.92 67.3263 38.9947 67.0276 39.048C66.7396 39.112 66.4463 39.144 66.1476 39.144C65.753 39.144 65.3903 39.0747 65.0596 38.936C64.729 38.7973 64.4623 38.5787 64.2596 38.28C64.0676 37.9707 63.9716 37.5707 63.9716 37.08V32.264H62.8676V30.616H63.9716V27.896H66.1156V30.616H67.8756V32.264H66.1156V36.36C66.1263 36.648 66.2063 36.856 66.3556 36.984C66.505 37.112 66.6916 37.176 66.9156 37.176C67.1396 37.176 67.3583 37.1387 67.5716 37.064C67.785 36.9893 67.9556 36.9253 68.0836 36.872L68.5156 38.568ZM77.4243 39H75.2803V34.296C75.2803 33.6453 75.1523 33.16 74.8963 32.84C74.6509 32.52 74.3096 32.36 73.8723 32.36C73.6163 32.36 73.3443 32.4347 73.0563 32.584C72.7683 32.7333 72.5069 32.9413 72.2723 33.208C72.0483 33.464 71.8829 33.7627 71.7763 34.104V39H69.6323V27.32H71.7763V32.168C72.0856 31.6347 72.5069 31.2187 73.0403 30.92C73.5736 30.6213 74.1549 30.472 74.7843 30.472C75.3283 30.472 75.7709 30.568 76.1123 30.76C76.4536 30.9413 76.7203 31.192 76.9123 31.512C77.1043 31.8213 77.2376 32.1733 77.3123 32.568C77.3869 32.952 77.4243 33.352 77.4243 33.768V39ZM79.2885 39V30.616H81.4325V39H79.2885ZM79.2885 29.448V27.32H81.4325V29.448H79.2885ZM82.7906 36.52C82.7906 35.976 82.94 35.5013 83.2386 35.096C83.548 34.68 83.9746 34.36 84.5186 34.136C85.0626 33.912 85.6866 33.8 86.3906 33.8C86.7426 33.8 87.1 33.8267 87.4626 33.88C87.8253 33.9333 88.14 34.0187 88.4066 34.136V33.688C88.4066 33.1547 88.2466 32.744 87.9266 32.456C87.6173 32.168 87.1533 32.024 86.5346 32.024C86.076 32.024 85.6386 32.104 85.2226 32.264C84.8066 32.424 84.3693 32.6587 83.9106 32.968L83.2226 31.56C83.7773 31.1973 84.3426 30.9253 84.9186 30.744C85.5053 30.5627 86.1186 30.472 86.7586 30.472C87.9533 30.472 88.8813 30.7707 89.5426 31.368C90.2146 31.9653 90.5506 32.8187 90.5506 33.928V36.6C90.5506 36.824 90.588 36.984 90.6626 37.08C90.748 37.176 90.8813 37.2347 91.0626 37.256V39C90.8706 39.032 90.6946 39.0587 90.5346 39.08C90.3853 39.1013 90.2573 39.112 90.1506 39.112C89.724 39.112 89.3986 39.016 89.1746 38.824C88.9613 38.632 88.828 38.3973 88.7746 38.12L88.7266 37.688C88.364 38.1573 87.9106 38.52 87.3666 38.776C86.8226 39.032 86.268 39.16 85.7026 39.16C85.148 39.16 84.6466 39.048 84.1986 38.824C83.7613 38.5893 83.4146 38.2747 83.1586 37.88C82.9133 37.4747 82.7906 37.0213 82.7906 36.52ZM88.0066 36.952C88.124 36.824 88.22 36.696 88.2946 36.568C88.3693 36.44 88.4066 36.3227 88.4066 36.216V35.368C88.1506 35.2613 87.8733 35.1813 87.5746 35.128C87.276 35.064 86.9933 35.032 86.7266 35.032C86.172 35.032 85.7133 35.1547 85.3506 35.4C84.9986 35.6347 84.8226 35.9493 84.8226 36.344C84.8226 36.5573 84.8813 36.76 84.9986 36.952C85.116 37.144 85.2866 37.2987 85.5106 37.416C85.7346 37.5333 86.0013 37.592 86.3106 37.592C86.6306 37.592 86.9453 37.5333 87.2546 37.416C87.564 37.288 87.8146 37.1333 88.0066 36.952ZM100.346 39H98.2021V34.296C98.2021 33.624 98.0848 33.1333 97.8501 32.824C97.6155 32.5147 97.2901 32.36 96.8741 32.36C96.5861 32.36 96.2928 32.4347 95.9941 32.584C95.7061 32.7333 95.4448 32.9413 95.2101 33.208C94.9755 33.464 94.8048 33.7627 94.6981 34.104V39H92.5541V30.616H94.4901V32.168C94.7035 31.8053 94.9755 31.5013 95.3061 31.256C95.6368 31 96.0155 30.808 96.4421 30.68C96.8795 30.5413 97.3381 30.472 97.8181 30.472C98.3408 30.472 98.7675 30.568 99.0981 30.76C99.4395 30.9413 99.6955 31.192 99.8661 31.512C100.047 31.8213 100.17 32.1733 100.234 32.568C100.309 32.9627 100.346 33.3627 100.346 33.768V39ZM105.298 39.16C104.584 39.16 103.901 39.0427 103.25 38.808C102.6 38.5733 102.04 38.2267 101.57 37.768L102.338 36.376C102.84 36.7813 103.33 37.08 103.81 37.272C104.301 37.464 104.77 37.56 105.218 37.56C105.634 37.56 105.965 37.4853 106.21 37.336C106.466 37.1867 106.594 36.9627 106.594 36.664C106.594 36.4613 106.525 36.3067 106.386 36.2C106.248 36.0827 106.045 35.9813 105.778 35.896C105.522 35.8107 105.208 35.7147 104.834 35.608C104.216 35.4053 103.698 35.208 103.282 35.016C102.866 34.824 102.552 34.584 102.338 34.296C102.136 33.9973 102.034 33.6187 102.034 33.16C102.034 32.6053 102.173 32.1307 102.45 31.736C102.738 31.3307 103.133 31.016 103.634 30.792C104.146 30.568 104.744 30.456 105.426 30.456C106.024 30.456 106.589 30.552 107.122 30.744C107.656 30.9253 108.141 31.224 108.578 31.64L107.714 33C107.288 32.6693 106.882 32.4293 106.498 32.28C106.114 32.12 105.725 32.04 105.33 32.04C105.106 32.04 104.893 32.0667 104.69 32.12C104.498 32.1733 104.338 32.264 104.21 32.392C104.093 32.5093 104.034 32.68 104.034 32.904C104.034 33.1067 104.088 33.2667 104.194 33.384C104.312 33.4907 104.482 33.5867 104.706 33.672C104.941 33.7573 105.224 33.8533 105.554 33.96C106.226 34.152 106.792 34.3493 107.25 34.552C107.72 34.7547 108.072 35.0053 108.306 35.304C108.541 35.592 108.658 35.992 108.658 36.504C108.658 37.336 108.354 37.9867 107.746 38.456C107.138 38.9253 106.322 39.16 105.298 39.16ZM23.184 58V46.64H28C28.5227 46.64 29.0027 46.7467 29.44 46.96C29.8773 47.1733 30.256 47.4613 30.576 47.824C30.9067 48.1867 31.1627 48.592 31.344 49.04C31.5253 49.488 31.616 49.9467 31.616 50.416C31.616 51.056 31.4667 51.664 31.168 52.24C30.8693 52.816 30.4587 53.2853 29.936 53.648C29.4133 54.0107 28.7947 54.192 28.08 54.192H25.392V58H23.184ZM25.392 52.256H27.952C28.2187 52.256 28.4587 52.1813 28.672 52.032C28.8853 51.8827 29.056 51.6693 29.184 51.392C29.312 51.104 29.376 50.7787 29.376 50.416C29.376 50.0213 29.3013 49.6853 29.152 49.408C29.0133 49.1307 28.8267 48.9227 28.592 48.784C28.368 48.6453 28.1227 48.576 27.856 48.576H25.392V52.256ZM32.2594 55.52C32.2594 54.976 32.4087 54.5013 32.7074 54.096C33.0167 53.68 33.4434 53.36 33.9874 53.136C34.5314 52.912 35.1554 52.8 35.8594 52.8C36.2114 52.8 36.5687 52.8267 36.9314 52.88C37.294 52.9333 37.6087 53.0187 37.8754 53.136V52.688C37.8754 52.1547 37.7154 51.744 37.3954 51.456C37.086 51.168 36.622 51.024 36.0034 51.024C35.5447 51.024 35.1074 51.104 34.6914 51.264C34.2754 51.424 33.838 51.6587 33.3794 51.968L32.6914 50.56C33.246 50.1973 33.8114 49.9253 34.3874 49.744C34.974 49.5627 35.5874 49.472 36.2274 49.472C37.422 49.472 38.35 49.7707 39.0114 50.368C39.6834 50.9653 40.0194 51.8187 40.0194 52.928V55.6C40.0194 55.824 40.0567 55.984 40.1314 56.08C40.2167 56.176 40.35 56.2347 40.5314 56.256V58C40.3394 58.032 40.1634 58.0587 40.0034 58.08C39.854 58.1013 39.726 58.112 39.6194 58.112C39.1927 58.112 38.8674 58.016 38.6434 57.824C38.43 57.632 38.2967 57.3973 38.2434 57.12L38.1954 56.688C37.8327 57.1573 37.3794 57.52 36.8354 57.776C36.2914 58.032 35.7367 58.16 35.1714 58.16C34.6167 58.16 34.1154 58.048 33.6674 57.824C33.23 57.5893 32.8834 57.2747 32.6274 56.88C32.382 56.4747 32.2594 56.0213 32.2594 55.52ZM37.4754 55.952C37.5927 55.824 37.6887 55.696 37.7634 55.568C37.838 55.44 37.8754 55.3227 37.8754 55.216V54.368C37.6194 54.2613 37.342 54.1813 37.0434 54.128C36.7447 54.064 36.462 54.032 36.1954 54.032C35.6407 54.032 35.182 54.1547 34.8194 54.4C34.4674 54.6347 34.2914 54.9493 34.2914 55.344C34.2914 55.5573 34.35 55.76 34.4674 55.952C34.5847 56.144 34.7554 56.2987 34.9794 56.416C35.2034 56.5333 35.47 56.592 35.7794 56.592C36.0994 56.592 36.414 56.5333 36.7234 56.416C37.0327 56.288 37.2834 56.1333 37.4754 55.952ZM41.9429 54.864V49.616H44.0869V54.4C44.0869 55.04 44.2042 55.5253 44.4389 55.856C44.6735 56.176 45.0202 56.336 45.4789 56.336C45.7562 56.336 46.0282 56.2827 46.2949 56.176C46.5722 56.0587 46.8229 55.888 47.0469 55.664C47.2815 55.44 47.4789 55.1573 47.6389 54.816V49.616H49.7829V55.6C49.7829 55.824 49.8202 55.984 49.8949 56.08C49.9802 56.176 50.1135 56.2347 50.2949 56.256V58C50.0815 58.032 49.9002 58.0533 49.7509 58.064C49.6122 58.0853 49.4842 58.096 49.3669 58.096C48.9829 58.096 48.6682 58.0107 48.4229 57.84C48.1882 57.6587 48.0495 57.4133 48.0069 57.104L47.9589 56.432C47.5855 56.9973 47.1055 57.4293 46.5189 57.728C45.9322 58.016 45.2869 58.16 44.5829 58.16C43.7189 58.16 43.0629 57.8827 42.6149 57.328C42.1669 56.7627 41.9429 55.9413 41.9429 54.864ZM51.8975 46.32H54.0415V55.312C54.0415 55.696 54.1055 55.9573 54.2335 56.096C54.3615 56.224 54.5375 56.288 54.7615 56.288C54.9322 56.288 55.1082 56.2667 55.2895 56.224C55.4708 56.1813 55.6308 56.128 55.7695 56.064L56.0575 57.696C55.7695 57.8347 55.4335 57.9413 55.0495 58.016C54.6655 58.0907 54.3188 58.128 54.0095 58.128C53.3375 58.128 52.8148 57.952 52.4415 57.6C52.0788 57.2373 51.8975 56.7253 51.8975 56.064V46.32ZM56.9916 58V49.616H59.1356V58H56.9916ZM56.9916 48.448V46.32H59.1356V48.448H56.9916ZM64.1578 58.16C63.4431 58.16 62.7604 58.0427 62.1098 57.808C61.4591 57.5733 60.8991 57.2267 60.4298 56.768L61.1978 55.376C61.6991 55.7813 62.1898 56.08 62.6698 56.272C63.1604 56.464 63.6298 56.56 64.0778 56.56C64.4938 56.56 64.8244 56.4853 65.0698 56.336C65.3258 56.1867 65.4538 55.9627 65.4538 55.664C65.4538 55.4613 65.3844 55.3067 65.2458 55.2C65.1071 55.0827 64.9044 54.9813 64.6378 54.896C64.3818 54.8107 64.0671 54.7147 63.6938 54.608C63.0751 54.4053 62.5578 54.208 62.1418 54.016C61.7258 53.824 61.4111 53.584 61.1978 53.296C60.9951 52.9973 60.8938 52.6187 60.8938 52.16C60.8938 51.6053 61.0324 51.1307 61.3098 50.736C61.5978 50.3307 61.9924 50.016 62.4938 49.792C63.0058 49.568 63.6031 49.456 64.2858 49.456C64.8831 49.456 65.4484 49.552 65.9818 49.744C66.5151 49.9253 67.0004 50.224 67.4378 50.64L66.5738 52C66.1471 51.6693 65.7418 51.4293 65.3578 51.28C64.9738 51.12 64.5844 51.04 64.1898 51.04C63.9658 51.04 63.7524 51.0667 63.5498 51.12C63.3578 51.1733 63.1978 51.264 63.0698 51.392C62.9524 51.5093 62.8938 51.68 62.8938 51.904C62.8938 52.1067 62.9471 52.2667 63.0538 52.384C63.1711 52.4907 63.3418 52.5867 63.5658 52.672C63.8004 52.7573 64.0831 52.8533 64.4138 52.96C65.0858 53.152 65.6511 53.3493 66.1098 53.552C66.5791 53.7547 66.9311 54.0053 67.1658 54.304C67.4004 54.592 67.5178 54.992 67.5178 55.504C67.5178 56.336 67.2138 56.9867 66.6058 57.456C65.9978 57.9253 65.1818 58.16 64.1578 58.16ZM73.9531 57.568C73.7718 57.6427 73.5531 57.728 73.2971 57.824C73.0411 57.92 72.7638 57.9947 72.4651 58.048C72.1771 58.112 71.8838 58.144 71.5851 58.144C71.1905 58.144 70.8278 58.0747 70.4971 57.936C70.1665 57.7973 69.8998 57.5787 69.6971 57.28C69.5051 56.9707 69.4091 56.5707 69.4091 56.08V51.264H68.3051V49.616H69.4091V46.896H71.5531V49.616H73.3131V51.264H71.5531V55.36C71.5638 55.648 71.6438 55.856 71.7931 55.984C71.9425 56.112 72.1291 56.176 72.3531 56.176C72.5771 56.176 72.7958 56.1387 73.0091 56.064C73.2225 55.9893 73.3931 55.9253 73.5211 55.872L73.9531 57.568ZM74.4938 55.52C74.4938 54.976 74.6431 54.5013 74.9418 54.096C75.2511 53.68 75.6778 53.36 76.2218 53.136C76.7658 52.912 77.3898 52.8 78.0938 52.8C78.4458 52.8 78.8031 52.8267 79.1658 52.88C79.5284 52.9333 79.8431 53.0187 80.1098 53.136V52.688C80.1098 52.1547 79.9498 51.744 79.6298 51.456C79.3204 51.168 78.8564 51.024 78.2378 51.024C77.7791 51.024 77.3418 51.104 76.9258 51.264C76.5098 51.424 76.0724 51.6587 75.6138 51.968L74.9258 50.56C75.4804 50.1973 76.0458 49.9253 76.6218 49.744C77.2084 49.5627 77.8218 49.472 78.4618 49.472C79.6564 49.472 80.5844 49.7707 81.2458 50.368C81.9178 50.9653 82.2538 51.8187 82.2538 52.928V55.6C82.2538 55.824 82.2911 55.984 82.3658 56.08C82.4511 56.176 82.5844 56.2347 82.7658 56.256V58C82.5738 58.032 82.3978 58.0587 82.2378 58.08C82.0884 58.1013 81.9604 58.112 81.8538 58.112C81.4271 58.112 81.1018 58.016 80.8778 57.824C80.6644 57.632 80.5311 57.3973 80.4778 57.12L80.4298 56.688C80.0671 57.1573 79.6138 57.52 79.0698 57.776C78.5258 58.032 77.9711 58.16 77.4058 58.16C76.8511 58.16 76.3498 58.048 75.9018 57.824C75.4644 57.5893 75.1178 57.2747 74.8618 56.88C74.6164 56.4747 74.4938 56.0213 74.4938 55.52ZM79.7098 55.952C79.8271 55.824 79.9231 55.696 79.9978 55.568C80.0724 55.44 80.1098 55.3227 80.1098 55.216V54.368C79.8538 54.2613 79.5764 54.1813 79.2778 54.128C78.9791 54.064 78.6964 54.032 78.4298 54.032C77.8751 54.032 77.4164 54.1547 77.0538 54.4C76.7018 54.6347 76.5258 54.9493 76.5258 55.344C76.5258 55.5573 76.5844 55.76 76.7018 55.952C76.8191 56.144 76.9898 56.2987 77.2138 56.416C77.4378 56.5333 77.7044 56.592 78.0138 56.592C78.3338 56.592 78.6484 56.5333 78.9578 56.416C79.2671 56.288 79.5178 56.1333 79.7098 55.952Z" fill="#F2F2F2"/>
<line x1="0.5" y1="2.18557e-08" x2="0.499997" y2="69" stroke="#F2F2F2"/>
</svg>
